<?xml version="1.0" standalone="no"?>
<!DOCTYPE svg PUBLIC "-//W3C//DTD SVG 20010904//EN"
 "http://www.w3.org/TR/2001/REC-SVG-20010904/DTD/svg10.dtd">
<svg version="1.0" xmlns="http://www.w3.org/2000/svg"
 width="512.000000pt" height="512.000000pt" viewBox="0 0 512.000000 512.000000"
 preserveAspectRatio="xMidYMid meet">
<metadata>
Created by potrace 1.15, written by Peter Selinger 2001-2017
</metadata>
<g transform="translate(0.000000,512.000000) scale(0.100000,-0.100000)"
fill="#000000" stroke="none">
<path d="M203 4958 c-174 -172 -196 -198 -191 -231 3 -19 32 5 192 163 103
102 192 193 197 203 8 14 5 17 -17 17 -21 0 -60 -33 -181 -152z"/>
<path d="M303 4858 c-140 -139 -264 -265 -275 -281 -10 -15 -18 -37 -16 -50 3
-18 49 23 292 263 158 157 292 293 297 303 8 14 5 17 -17 17 -22 0 -75 -47
-281 -252z"/>
<path d="M402 4758 c-194 -194 -362 -365 -373 -381 -11 -15 -19 -37 -17 -50 4
-18 67 40 392 363 213 212 392 393 397 403 8 14 5 17 -18 17 -22 0 -89 -62
-381 -352z"/>
<path d="M502 4658 c-249 -249 -462 -465 -473 -481 -11 -15 -19 -37 -17 -50 4
-18 84 57 492 463 268 267 492 493 497 503 8 14 5 17 -18 17 -22 0 -104 -76
-481 -452z"/>
<path d="M602 4558 c-304 -304 -562 -565 -573 -581 -11 -15 -19 -37 -17 -50 4
-18 101 75 592 563 323 322 592 593 597 603 8 14 5 17 -18 17 -23 0 -118 -91
-581 -552z"/>
<path d="M702 4458 c-359 -359 -662 -665 -673 -681 -11 -15 -19 -37 -17 -50 4
-18 118 92 692 663 378 377 692 693 697 703 8 14 5 17 -18 17 -23 0 -133 -106
-681 -652z"/>
<path d="M1201 4754 c-262 -262 -331 -335 -261 -277 53 43 126 101 163 128 63
47 481 457 499 490 7 12 3 15 -18 15 -23 0 -89 -61 -383 -356z"/>
<path d="M1616 4970 c-140 -140 -146 -152 -44 -98 24 12 47 21 51 20 5 -1 6 1
3 6 -3 5 33 46 80 93 104 103 115 119 78 119 -21 0 -57 -31 -168 -140z"/>
<path d="M3642 4996 c-113 -110 -115 -114 -93 -126 22 -11 30 -5 133 96 129
128 140 144 102 144 -20 0 -53 -27 -142 -114z"/>
<path d="M3814 4968 c-79 -78 -144 -145 -144 -149 0 -4 10 -11 21 -14 18 -6
45 16 161 131 160 159 171 174 132 174 -20 0 -58 -31 -170 -142z"/>
<path d="M3979 4933 c-99 -97 -179 -180 -179 -184 0 -4 10 -11 21 -14 18 -6
50 21 196 166 96 96 179 182 184 192 8 14 5 17 -17 17 -21 0 -64 -36 -205
-177z"/>
<path d="M4139 4893 c-171 -169 -216 -219 -208 -230 7 -7 17 -13 23 -13 12 0
456 441 456 453 0 4 -12 7 -27 7 -21 0 -70 -44 -244 -217z"/>
<path d="M4296 4850 c-249 -247 -260 -260 -241 -274 19 -14 34 -1 278 242 142
141 263 265 268 275 8 14 5 17 -17 17 -22 0 -76 -48 -288 -260z"/>
<path d="M4453 4808 c-235 -235 -300 -305 -291 -315 6 -7 16 -13 22 -13 12 0
626 611 626 623 0 4 -12 7 -27 7 -22 0 -83 -56 -330 -302z"/>
<path d="M4606 4760 c-335 -333 -350 -350 -333 -367 17 -17 33 -2 368 332 193
193 355 358 360 368 8 14 5 17 -18 17 -22 0 -88 -61 -377 -350z"/>
<path d="M4735 4688 c-362 -360 -379 -378 -362 -395 16 -17 34 -1 363 327 190
190 354 357 365 373 11 15 19 37 17 50 -4 18 -65 -39 -383 -355z"/>
<path d="M4783 4538 c-178 -178 -323 -328 -323 -334 0 -6 6 -16 13 -22 10 -9
84 59 330 306 258 259 317 323 317 345 0 15 -3 27 -7 27 -4 0 -153 -145 -330
-322z"/>
<path d="M4828 4383 c-153 -153 -278 -283 -278 -289 0 -6 6 -16 13 -22 10 -9
74 49 285 262 220 220 272 278 272 299 0 15 -3 27 -7 27 -4 0 -132 -125 -285
-277z"/>
<path d="M4871 4224 c-230 -228 -243 -242 -231 -264 12 -22 20 -15 227 191
237 236 256 259 251 292 -3 19 -42 -15 -247 -219z"/>
<path d="M367 3922 c-295 -296 -357 -363 -357 -386 0 -21 3 -25 15 -18 33 18
453 446 500 509 28 37 85 109 127 160 43 51 77 93 75 93 -1 0 -163 -161 -360
-358z"/>
<path d="M4908 4063 c-109 -109 -198 -203 -198 -209 0 -6 6 -17 13 -23 20 -16
397 365 397 403 0 14 -3 26 -7 26 -4 0 -96 -89 -205 -197z"/>
<path d="M4946 3899 c-159 -156 -168 -167 -156 -189 12 -22 17 -18 152 116
159 159 181 185 176 217 -3 19 -28 -2 -172 -144z"/>
<path d="M4981 3734 c-124 -122 -133 -133 -127 -159 7 -28 8 -27 117 81 129
128 152 156 147 187 -3 19 -22 4 -137 -109z"/>
<path d="M152 3506 c-111 -112 -142 -150 -142 -170 0 -37 16 -27 124 83 49 49
93 88 98 85 5 -3 7 -2 6 3 -1 4 8 27 20 51 24 45 43 92 39 92 -2 0 -67 -65
-145 -144z"/>
<path d="M4998 1753 c-82 -80 -116 -122 -134 -162 -13 -30 -23 -56 -21 -57 2
-2 65 59 140 135 105 107 137 145 137 165 0 14 -3 26 -6 26 -4 0 -56 -48 -116
-107z"/>
<path d="M4901 1455 c-133 -131 -235 -242 -273 -295 -34 -47 -72 -101 -86
-120 -14 -19 102 91 257 245 155 154 291 292 302 308 11 15 19 37 17 50 -3 19
-36 -10 -217 -188z"/>
<path d="M127 1481 c-89 -91 -117 -126 -117 -146 0 -37 16 -26 149 108 103
104 112 116 102 136 -7 11 -13 21 -15 21 -1 0 -55 -54 -119 -119z"/>
<path d="M157 1311 c-115 -116 -147 -154 -147 -175 0 -22 3 -25 18 -17 9 5 82
75 161 154 119 120 142 148 136 166 -3 11 -10 21 -14 21 -4 0 -73 -67 -154
-149z"/>
<path d="M4396 750 c-394 -393 -722 -723 -727 -732 -8 -15 -5 -18 18 -18 23 0
137 110 711 683 376 375 692 694 703 710 11 15 19 37 17 50 -4 18 -124 -97
-722 -693z"/>
<path d="M192 1146 c-145 -146 -182 -189 -182 -210 0 -22 3 -25 18 -17 9 5 97
90 196 189 149 150 177 183 171 201 -3 11 -10 21 -14 21 -4 0 -89 -83 -189
-184z"/>
<path d="M4496 650 c-339 -338 -622 -623 -627 -632 -8 -15 -5 -18 18 -18 23 0
123 95 611 583 321 320 592 594 603 610 11 15 19 37 17 50 -4 18 -106 -80
-622 -593z"/>
<path d="M232 986 c-178 -178 -222 -228 -222 -249 0 -15 3 -27 7 -27 12 0 463
454 463 466 0 6 -6 16 -13 23 -11 8 -62 -39 -235 -213z"/>
<path d="M272 827 c-212 -213 -262 -269 -262 -290 0 -15 3 -27 7 -27 4 0 130
122 279 271 241 241 271 274 261 290 -7 11 -14 19 -17 19 -3 0 -124 -118 -268
-263z"/>
<path d="M4596 550 c-284 -283 -522 -523 -527 -533 -8 -14 -5 -17 18 -17 23 0
108 81 511 483 266 265 492 494 503 510 11 15 19 37 17 50 -4 18 -89 -62 -522
-493z"/>
<path d="M317 672 c-250 -251 -307 -313 -307 -335 0 -15 3 -27 7 -27 12 0 633
624 633 636 0 6 -6 16 -13 22 -10 9 -81 -57 -320 -296z"/>
<path d="M362 517 c-290 -291 -352 -358 -352 -380 0 -23 3 -26 18 -18 9 5 176
169 371 365 307 307 353 357 342 370 -8 9 -16 16 -20 16 -4 0 -165 -159 -359
-353z"/>
<path d="M4696 450 c-229 -228 -422 -423 -427 -432 -8 -15 -5 -18 18 -18 22 0
93 66 411 383 211 210 392 394 403 410 11 15 19 37 17 50 -4 18 -72 -45 -422
-393z"/>
<path d="M435 388 c-319 -320 -376 -382 -358 -386 13 -2 35 6 50 17 16 11 185
177 377 370 303 303 348 352 337 365 -8 9 -16 16 -20 16 -3 0 -177 -172 -386
-382z"/>
<path d="M587 342 c-180 -180 -327 -331 -327 -335 0 -4 12 -7 27 -7 22 0 86
59 350 322 251 250 320 325 311 335 -6 7 -16 13 -22 13 -6 0 -159 -148 -339
-328z"/>
<path d="M4796 350 c-174 -173 -322 -323 -327 -332 -8 -15 -5 -18 17 -18 23 0
80 52 312 282 156 156 293 295 303 311 11 15 19 37 17 50 -4 18 -54 -28 -322
-293z"/>
<path d="M4000 525 c-153 -111 -558 -517 -523 -523 13 -2 35 6 50 17 29 20
602 591 593 590 -3 0 -57 -38 -120 -84z"/>
<path d="M742 297 c-155 -156 -282 -286 -282 -290 0 -4 12 -7 27 -7 21 0 79
53 304 277 217 215 276 280 267 290 -6 7 -16 13 -22 13 -6 0 -138 -127 -294
-283z"/>
<path d="M902 257 c-133 -134 -242 -246 -242 -250 0 -4 12 -7 27 -7 21 0 73
47 265 237 213 212 237 239 221 250 -9 7 -19 13 -23 13 -3 0 -115 -109 -248
-243z"/>
<path d="M4896 250 c-119 -118 -222 -223 -227 -232 -8 -15 -5 -18 17 -18 21 0
65 37 211 183 205 202 226 227 221 260 -3 19 -37 -11 -222 -193z"/>
<path d="M1062 217 c-111 -112 -202 -206 -202 -210 0 -4 12 -7 26 -7 38 0 429
387 413 407 -6 7 -17 13 -23 13 -6 0 -103 -91 -214 -203z"/>
<path d="M1227 182 c-92 -93 -167 -171 -167 -175 0 -4 12 -7 26 -7 21 0 62 35
191 162 147 146 162 164 147 175 -10 7 -21 13 -24 13 -3 0 -81 -76 -173 -168z"/>
<path d="M3535 265 c-35 -16 -84 -58 -165 -141 -100 -103 -112 -119 -93 -122
13 -2 35 6 50 17 39 28 280 271 268 270 -6 0 -32 -11 -60 -24z"/>
<path d="M1392 147 c-73 -74 -132 -137 -132 -140 0 -4 12 -7 26 -7 20 0 57 31
160 132 130 128 143 147 94 148 -9 0 -75 -60 -148 -133z"/>
<path d="M4996 150 c-136 -133 -149 -150 -111 -150 18 0 49 23 111 82 102 98
127 130 122 161 -3 19 -19 7 -122 -93z"/>
</g>
</svg>
