<?xml version="1.0" standalone="no"?>
<!DOCTYPE svg PUBLIC "-//W3C//DTD SVG 20010904//EN"
 "http://www.w3.org/TR/2001/REC-SVG-20010904/DTD/svg10.dtd">
<svg version="1.0" xmlns="http://www.w3.org/2000/svg"
 width="327.000000pt" height="347.000000pt" viewBox="0 0 327.000000 347.000000"
 preserveAspectRatio="xMidYMid meet">
<metadata>
Created by potrace 1.15, written by Peter Selinger 2001-2017
</metadata>
<g transform="translate(0.000000,347.000000) scale(0.100000,-0.100000)"
fill="#000000" stroke="none">
<path d="M1430 3114 c-61 -24 -67 -25 -97 -10 l-32 15 -160 -91 -160 -92 -3
-65 -3 -66 -65 -3 -65 -3 -90 -156 c-95 -164 -92 -156 -134 -388 -18 -96 -19
-111 -6 -125 11 -12 15 -40 15 -93 l0 -76 50 -27 50 -27 -30 -52 c-17 -29 -30
-58 -30 -65 0 -6 33 -69 74 -139 41 -70 76 -137 78 -148 5 -30 273 -262 296
-256 10 2 55 -18 106 -47 l88 -52 48 26 c26 14 50 26 53 26 4 0 18 -20 32 -44
l26 -45 177 -3 c172 -3 179 -2 256 25 53 19 89 26 107 22 24 -5 57 9 189 85
l160 91 0 69 0 69 57 3 57 3 88 150 c55 96 87 161 88 180 0 48 18 96 40 112
19 13 20 25 20 198 l0 184 -55 33 c-30 18 -55 37 -55 43 0 5 11 28 25 50 13
22 25 47 25 55 0 8 -27 62 -61 120 -34 58 -71 124 -84 148 -15 27 -71 84 -159
161 -131 114 -138 119 -166 110 -25 -9 -38 -5 -99 30 l-70 41 -51 -30 -51 -30
-31 50 -31 50 -156 0 c-86 0 -165 2 -176 5 -11 2 -49 -7 -85 -21z m409 -58
c12 -18 21 -38 21 -44 0 -10 -102 -72 -117 -72 -5 0 -44 34 -88 75 l-80 74
122 1 121 0 21 -34z m-237 -57 l89 -82 -5 -106 c-2 -58 -5 -138 -5 -177 l-1
-71 -36 -11 c-29 -8 -33 -8 -24 3 7 8 10 75 8 195 l-3 183 -75 45 c-41 24 -77
46 -79 48 -7 6 21 54 32 54 5 0 49 -37 99 -81z m-219 19 c15 -12 12 -22 -39
-110 l-56 -98 81 -139 c45 -77 81 -144 81 -150 0 -9 -31 -31 -43 -31 -3 0 -45
70 -93 155 -79 137 -92 155 -115 155 -14 0 -28 2 -31 5 -5 5 26 173 33 179 10
8 126 45 145 45 11 1 28 -5 37 -11z m132 -77 l60 -38 3 -156 3 -156 -38 -25
c-29 -18 -41 -21 -50 -13 -6 7 -43 67 -82 134 l-71 123 47 85 c27 46 53 84 58
84 6 0 37 -17 70 -38z m389 3 c4 -10 -3 -18 -22 -25 -27 -9 -29 -15 -61 -182
-19 -94 -36 -178 -39 -184 -12 -33 -51 5 -45 44 2 15 16 92 31 171 l26 143 41
23 c48 29 61 31 69 10z m311 -30 c69 -42 72 -46 70 -82 l-1 -27 -94 -3 -95 -3
-88 -154 c-81 -141 -90 -153 -108 -142 -10 6 -20 16 -23 22 -2 6 32 72 76 148
l80 137 -26 45 c-17 32 -21 47 -13 50 74 28 126 44 142 44 11 1 47 -15 80 -35z
m-255 -68 l21 -35 -67 -115 c-37 -64 -69 -114 -71 -112 -4 4 42 253 52 284 8
24 43 12 65 -22z m-980 -160 l0 -74 -111 -37 c-60 -20 -112 -35 -114 -33 -2 2
24 52 58 111 l62 107 53 0 52 0 0 -74z m116 17 l-6 -58 116 -99 c67 -58 111
-103 106 -108 -12 -12 -132 58 -214 127 l-68 55 0 70 0 70 35 0 36 0 -5 -57z
m164 -55 c35 -62 71 -124 79 -138 l16 -25 -32 25 c-84 66 -172 147 -178 162
-3 9 -3 33 1 53 5 27 11 35 28 35 17 0 35 -23 86 -112z m1021 100 c1 -15 1
-106 0 -159 -1 -36 -3 -38 -126 -108 -69 -39 -129 -71 -134 -71 -12 0 -51 54
-51 69 0 6 35 72 77 146 l77 135 78 0 c55 0 78 -4 79 -12z m149 0 c0 -31 -44
-244 -52 -255 -32 -40 -293 -152 -311 -134 -8 8 77 62 221 141 l42 24 1 100
c1 56 2 106 4 111 1 6 3 13 3 18 3 13 92 8 92 -5z m114 -160 c31 -53 56 -101
56 -107 0 -17 -41 -81 -52 -81 -22 0 -118 66 -118 81 0 8 9 58 20 109 11 51
20 98 20 104 0 18 17 -6 74 -106z m-1480 -77 c80 -50 191 -139 182 -148 -2 -3
-58 27 -124 66 -179 106 -154 102 -265 38 l-96 -56 -21 29 c-13 19 -17 31 -10
35 13 8 231 83 244 84 4 1 45 -21 90 -48z m49 -135 c128 -75 134 -83 97 -144
l-20 -33 -157 3 -157 3 -42 70 c-24 39 -43 77 -43 85 -1 9 34 34 82 61 70 39
85 44 102 34 11 -6 73 -42 138 -79z m345 39 c-6 -13 -25 -29 -42 -35 -42 -15
-76 -70 -76 -123 0 -26 -10 -61 -25 -90 -24 -44 -24 -49 -11 -76 9 -17 13 -42
10 -63 -4 -24 -1 -38 10 -47 9 -7 16 -22 16 -32 0 -11 18 -29 45 -45 25 -14
52 -39 61 -55 18 -36 12 -36 -45 1 -35 22 -56 46 -84 100 l-39 70 4 128 3 127
40 65 c33 54 48 67 85 82 59 22 61 22 48 -7z m484 -38 c42 -27 60 -48 88 -100
l34 -65 -21 -116 c-26 -142 -74 -237 -138 -273 -51 -29 -57 -29 -43 2 6 14 26
30 45 37 18 7 33 16 33 20 0 4 10 18 21 29 16 16 23 37 25 76 2 29 13 71 24
93 19 37 19 43 6 69 -10 18 -13 42 -9 63 3 21 1 38 -6 42 -6 4 -11 17 -11 29
0 16 -13 30 -48 49 -26 14 -56 41 -66 59 -23 39 -13 37 66 -14z m534 2 c47
-26 52 -32 42 -49 -11 -17 -14 -16 -50 13 l-39 31 -156 -52 c-86 -28 -158 -50
-160 -49 -6 7 166 98 218 116 73 26 83 26 145 -10z m-685 -17 c47 -29 74 -54
104 -98 39 -58 40 -61 38 -139 -2 -67 -7 -89 -35 -143 -30 -59 -37 -66 -102
-99 -80 -40 -175 -55 -217 -33 -79 42 -132 86 -159 134 -26 45 -30 61 -30 131
0 127 41 195 150 250 51 26 79 33 136 34 42 1 62 -6 115 -37z m-995 -109 l50
-88 183 -3 c182 -2 182 -2 179 -25 -3 -22 -5 -22 -185 -25 -101 -1 -183 -6
-183 -10 0 -4 -9 -22 -20 -40 l-21 -33 -59 51 -60 52 0 88 c0 79 2 89 23 103
12 9 27 16 32 16 6 1 33 -38 61 -86z m1657 39 l26 -28 -19 -32 -20 -32 -154 0
c-85 0 -157 4 -160 9 -4 5 13 16 36 25 74 28 243 84 254 85 5 1 22 -12 37 -27z
m138 -122 l66 -59 -14 -83 c-14 -74 -30 -108 -54 -108 -4 0 -31 43 -60 95
l-54 95 -182 0 -183 0 0 25 0 25 180 0 181 0 20 35 c12 19 24 35 28 35 3 0 36
-27 72 -60z m-1401 -109 c0 -5 -68 -32 -151 -61 l-151 -53 -26 26 -26 26 19
36 20 35 157 0 c87 0 158 -4 158 -9z m1303 -76 c27 -47 46 -89 42 -94 -3 -6
-39 -28 -80 -51 l-75 -41 -132 78 c-125 74 -133 81 -136 112 -2 19 -1 44 2 57
6 24 6 24 169 24 l162 0 48 -85z m-1265 13 c-7 -21 -75 -54 -200 -98 l-118
-42 -55 32 c-30 17 -55 38 -55 46 0 20 8 18 48 -13 l35 -26 161 56 c172 60
190 64 184 45z m29 -98 l25 -19 -38 -23 c-21 -13 -86 -50 -144 -83 l-105 -61
-5 -99 -5 -100 -52 -3 c-64 -4 -63 -8 -30 152 20 102 24 110 48 117 15 3 58
25 98 48 62 36 169 91 179 91 2 0 15 -9 29 -20z m973 -70 l154 -90 36 21 c141
85 170 93 170 51 0 -14 -24 -26 -113 -55 -62 -20 -119 -37 -126 -37 -20 0
-184 96 -241 141 -45 36 -62 59 -42 59 4 0 77 -40 162 -90z m-1404 19 c30 -17
54 -36 54 -42 0 -23 -33 -192 -40 -206 -4 -8 -26 19 -63 84 -32 53 -57 101
-57 106 0 11 43 89 49 89 2 0 28 -14 57 -31z m522 -59 c-2 -9 -37 -75 -78
-148 l-75 -131 -78 -1 -78 0 3 88 3 87 135 77 c126 72 136 76 153 60 10 -9 17
-23 15 -32z m851 -72 c47 -40 91 -72 98 -70 11 2 13 -12 11 -65 l-3 -68 -40 0
-40 0 2 40 c2 39 1 42 -119 144 l-120 105 22 18 c21 17 23 17 64 -7 22 -13 79
-57 125 -97z m-765 30 l25 -23 -85 -147 -85 -147 16 -31 c9 -18 15 -33 13 -35
-2 -1 -41 -15 -88 -30 l-84 -28 -53 28 -53 27 0 54 0 53 92 3 92 3 85 148 c47
81 89 147 93 147 4 0 18 -10 32 -22z m583 -138 c73 -126 80 -135 111 -138 17
-2 32 -6 32 -10 0 -26 -34 -189 -42 -199 -5 -7 -32 -19 -60 -29 -47 -15 -52
-15 -84 2 -19 10 -34 22 -34 27 0 4 21 44 46 88 l46 79 -87 151 c-48 83 -85
152 -84 153 2 2 18 10 34 19 22 11 32 12 37 4 4 -7 42 -73 85 -147z m491 11
l-63 -110 -42 -1 -43 0 0 79 0 79 103 35 c56 19 103 33 105 32 2 -2 -25 -53
-60 -114z m-934 66 c17 -13 17 -20 -10 -158 -15 -79 -28 -155 -28 -169 -1 -18
-13 -32 -46 -52 -56 -34 -64 -34 -79 -2 -13 29 -12 32 21 48 19 10 27 29 45
121 46 228 45 225 62 225 10 0 25 -6 35 -13z m216 -402 l80 -46 -22 -39 c-13
-22 -26 -40 -31 -40 -4 0 -48 37 -98 81 -59 54 -88 86 -85 96 3 8 6 86 6 174
l0 160 33 14 32 13 3 -183 2 -184 80 -46z m113 280 l78 -135 -41 -70 c-23 -39
-45 -70 -50 -70 -5 0 -36 16 -69 35 l-61 36 0 159 c0 141 2 160 18 169 36 21
48 9 125 -124z m407 -150 l0 -54 -61 -36 c-34 -20 -64 -34 -66 -31 -3 3 2 40
11 84 9 43 16 82 16 85 0 4 23 7 50 7 l50 0 0 -55z m-645 -190 l80 -74 -122
-1 -121 0 -22 36 c-13 24 -18 40 -11 47 10 10 103 66 111 66 3 1 41 -33 85
-74z"/>
<path d="M1062 565 c3 -192 5 -198 62 -193 39 4 45 26 9 30 l-28 3 -3 168 c-2
161 -3 167 -23 167 -20 0 -20 -4 -17 -175z"/>
<path d="M810 723 c-86 -33 -134 -148 -99 -240 23 -62 93 -113 154 -113 64 0
152 57 127 82 -9 9 -15 8 -24 -4 -45 -55 -127 -65 -179 -21 -60 51 -75 132
-39 203 38 74 132 94 192 41 40 -34 65 -32 42 4 -28 43 -119 68 -174 48z"/>
<path d="M2060 675 c0 -33 -4 -45 -15 -45 -8 0 -15 -4 -15 -10 0 -5 7 -10 15
-10 12 0 15 -17 15 -92 0 -130 22 -162 96 -144 33 9 20 31 -19 31 l-32 0 -3
103 -3 102 31 0 c16 0 30 5 30 10 0 6 -13 10 -30 10 -29 0 -30 2 -30 45 0 38
-3 45 -20 45 -17 0 -20 -7 -20 -45z"/>
<path d="M1410 633 c-8 -3 -27 -17 -42 -31 l-28 -26 0 27 c0 17 -5 27 -15 27
-13 0 -15 -21 -15 -130 0 -109 2 -130 15 -130 12 0 15 16 15 81 0 91 16 131
61 149 36 15 68 4 80 -27 5 -13 9 -65 9 -114 0 -72 3 -89 15 -89 12 0 15 16
15 80 0 50 5 91 14 108 30 58 107 67 126 16 6 -14 10 -66 10 -115 0 -75 3 -89
16 -89 14 0 15 15 12 116 -3 109 -4 117 -28 136 -32 26 -83 19 -120 -17 -29
-28 -40 -31 -40 -11 0 28 -64 53 -100 39z"/>
<path d="M1818 624 c-21 -9 -38 -21 -38 -26 0 -6 7 -7 18 -2 9 4 37 9 62 12
51 4 73 -12 85 -60 l7 -27 -65 2 c-82 2 -120 -21 -125 -75 -2 -29 2 -40 24
-57 34 -26 89 -27 131 -2 31 19 31 19 36 0 3 -10 12 -19 20 -19 11 0 13 15 10
78 -2 42 -6 91 -9 108 -10 66 -85 98 -156 68z m124 -130 c15 -10 8 -50 -12
-72 -55 -58 -154 -28 -136 41 4 19 16 29 39 36 29 9 91 6 109 -5z"/>
<path d="M2271 622 c-68 -37 -91 -129 -48 -193 44 -65 130 -80 187 -33 21 19
28 29 20 34 -7 4 -21 -1 -31 -11 -24 -24 -66 -34 -98 -23 -23 9 -71 66 -71 85
0 5 52 9 115 9 113 0 115 0 115 23 0 59 -70 127 -130 127 -14 0 -41 -8 -59
-18z"/>
</g>
</svg>
